<svg width="339" height="56" viewBox="0 0 339 56" fill="none" xmlns="http://www.w3.org/2000/svg">
<g clip-path="url(#clip0_1_22)">
<path d="M24.6591 45H20.2273L33.0455 10.0909H37.4091L50.2273 45H45.7955L35.3636 15.6136H35.0909L24.6591 45ZM26.2955 31.3636H44.1591V35.1136H26.2955V31.3636ZM54.3693 45V41.9318L69.233 22.8409V22.5682H54.8466V18.8182H74.4148V22.0227L59.9602 40.9773V41.25H74.892V45H54.3693ZM88.7926 45.6136C87.1335 45.6136 85.6278 45.3011 84.2756 44.6761C82.9233 44.0398 81.8494 43.125 81.054 41.9318C80.2585 40.7273 79.8608 39.2727 79.8608 37.5682C79.8608 36.0682 80.1563 34.8523 80.7472 33.9205C81.3381 32.9773 82.1278 32.2386 83.1165 31.7045C84.1051 31.1705 85.196 30.7727 86.3892 30.5114C87.5938 30.2386 88.804 30.0227 90.0199 29.8636C91.6108 29.6591 92.9006 29.5057 93.8892 29.4034C94.8892 29.2898 95.6165 29.1023 96.071 28.8409C96.5369 28.5795 96.7699 28.125 96.7699 27.4773V27.3409C96.7699 25.6591 96.3097 24.3523 95.3892 23.4205C94.4801 22.4886 93.0994 22.0227 91.2472 22.0227C89.3267 22.0227 87.821 22.4432 86.7301 23.2841C85.6392 24.125 84.8722 25.0227 84.429 25.9773L80.6108 24.6136C81.2926 23.0227 82.2017 21.7841 83.3381 20.8977C84.4858 20 85.7358 19.375 87.0881 19.0227C88.4517 18.6591 89.7926 18.4773 91.1108 18.4773C91.9517 18.4773 92.9176 18.5795 94.0085 18.7841C95.1108 18.9773 96.1733 19.3807 97.196 19.9943C98.2301 20.608 99.0881 21.5341 99.7699 22.7727C100.452 24.0114 100.793 25.6705 100.793 27.75V45H96.7699V41.4545H96.5653C96.2926 42.0227 95.8381 42.6307 95.2017 43.2784C94.5653 43.9261 93.7188 44.4773 92.6619 44.9318C91.6051 45.3864 90.3153 45.6136 88.7926 45.6136ZM89.4062 42C90.9972 42 92.3381 41.6875 93.429 41.0625C94.5313 40.4375 95.3608 39.6307 95.9176 38.642C96.4858 37.6534 96.7699 36.6136 96.7699 35.5227V31.8409C96.5994 32.0455 96.2244 32.233 95.6449 32.4034C95.0767 32.5625 94.4176 32.7045 93.6676 32.8295C92.929 32.9432 92.2074 33.0455 91.5028 33.1364C90.8097 33.2159 90.2472 33.2841 89.8153 33.3409C88.7699 33.4773 87.7926 33.6989 86.8835 34.0057C85.9858 34.3011 85.2585 34.75 84.7017 35.3523C84.1563 35.9432 83.8835 36.75 83.8835 37.7727C83.8835 39.1705 84.4006 40.2273 85.4347 40.9432C86.4801 41.6477 87.804 42 89.4062 42ZM119.521 18.8182V22.2273H105.953V18.8182H119.521ZM109.908 12.5455H113.93V37.5C113.93 38.6364 114.095 39.4886 114.425 40.0568C114.766 40.6136 115.197 40.9886 115.72 41.1818C116.254 41.3636 116.817 41.4545 117.408 41.4545C117.851 41.4545 118.214 41.4318 118.499 41.3864C118.783 41.3295 119.01 41.2841 119.18 41.25L119.999 44.8636C119.726 44.9659 119.345 45.0682 118.857 45.1705C118.368 45.2841 117.749 45.3409 116.999 45.3409C115.862 45.3409 114.749 45.0966 113.658 44.608C112.578 44.1193 111.68 43.375 110.964 42.375C110.26 41.375 109.908 40.1136 109.908 38.5909V12.5455ZM127.55 45H123.118L135.936 10.0909H140.3L153.118 45H148.686L138.254 15.6136H137.982L127.55 45ZM129.186 31.3636H147.05V35.1136H129.186V31.3636ZM162.783 10.0909V45H158.555V10.0909H162.783Z" fill="black"/>
<path d="M184.759 10.0909H189.804L201.668 39.0682H202.077L213.94 10.0909H218.986V45H215.031V18.4773H214.69L203.781 45H199.963L189.054 18.4773H188.713V45H184.759V10.0909ZM237.893 45.5455C235.371 45.5455 233.195 44.9886 231.365 43.875C229.547 42.75 228.143 41.1818 227.155 39.1705C226.178 37.1477 225.689 34.7955 225.689 32.1136C225.689 29.4318 226.178 27.0682 227.155 25.0227C228.143 22.9659 229.518 21.3636 231.28 20.2159C233.053 19.0568 235.121 18.4773 237.484 18.4773C238.848 18.4773 240.195 18.7045 241.524 19.1591C242.854 19.6136 244.064 20.3523 245.155 21.375C246.246 22.3864 247.115 23.7273 247.763 25.3977C248.411 27.0682 248.734 29.125 248.734 31.5682V33.2727H228.553V29.7955H244.643C244.643 28.3182 244.348 27 243.757 25.8409C243.178 24.6818 242.348 23.767 241.268 23.0966C240.2 22.4261 238.939 22.0909 237.484 22.0909C235.882 22.0909 234.496 22.4886 233.325 23.2841C232.166 24.0682 231.274 25.0909 230.649 26.3523C230.024 27.6136 229.712 28.9659 229.712 30.4091V32.7273C229.712 34.7045 230.053 36.3807 230.734 37.7557C231.428 39.1193 232.388 40.1591 233.615 40.875C234.842 41.5795 236.268 41.9318 237.893 41.9318C238.95 41.9318 239.905 41.7841 240.757 41.4886C241.621 41.1818 242.365 40.7273 242.99 40.125C243.615 39.5114 244.098 38.75 244.439 37.8409L248.325 38.9318C247.916 40.25 247.229 41.4091 246.263 42.4091C245.297 43.3977 244.104 44.1705 242.683 44.7273C241.263 45.2727 239.666 45.5455 237.893 45.5455ZM264.74 45.5455C262.558 45.5455 260.632 44.9943 258.962 43.892C257.291 42.7784 255.984 41.2102 255.041 39.1875C254.098 37.1534 253.626 34.75 253.626 31.9773C253.626 29.2273 254.098 26.8409 255.041 24.8182C255.984 22.7955 257.297 21.233 258.979 20.1307C260.661 19.0284 262.604 18.4773 264.808 18.4773C266.513 18.4773 267.859 18.7614 268.848 19.3295C269.848 19.8864 270.609 20.5227 271.132 21.2386C271.666 21.9432 272.081 22.5227 272.376 22.9773H272.717V10.0909H276.74V45H272.854V40.9773H272.376C272.081 41.4545 271.661 42.0568 271.115 42.7841C270.57 43.5 269.791 44.142 268.78 44.7102C267.768 45.267 266.422 45.5455 264.74 45.5455ZM265.286 41.9318C266.899 41.9318 268.263 41.5114 269.376 40.6705C270.49 39.8182 271.337 38.642 271.916 37.142C272.496 35.6307 272.786 33.8864 272.786 31.9091C272.786 29.9545 272.501 28.2443 271.933 26.7784C271.365 25.3011 270.524 24.1534 269.411 23.3352C268.297 22.5057 266.922 22.0909 265.286 22.0909C263.581 22.0909 262.161 22.5284 261.024 23.4034C259.899 24.267 259.053 25.4432 258.484 26.9318C257.928 28.4091 257.649 30.0682 257.649 31.9091C257.649 33.7727 257.933 35.4659 258.501 36.9886C259.081 38.5 259.933 39.7045 261.058 40.6023C262.195 41.4886 263.604 41.9318 265.286 41.9318ZM284.666 45V18.8182H288.689V45H284.666ZM286.712 14.4545C285.928 14.4545 285.251 14.1875 284.683 13.6534C284.126 13.1193 283.848 12.4773 283.848 11.7273C283.848 10.9773 284.126 10.3352 284.683 9.80114C285.251 9.26705 285.928 9 286.712 9C287.496 9 288.166 9.26705 288.723 9.80114C289.291 10.3352 289.575 10.9773 289.575 11.7273C289.575 12.4773 289.291 13.1193 288.723 13.6534C288.166 14.1875 287.496 14.4545 286.712 14.4545ZM303.761 45.6136C302.102 45.6136 300.597 45.3011 299.244 44.6761C297.892 44.0398 296.818 43.125 296.023 41.9318C295.227 40.7273 294.83 39.2727 294.83 37.5682C294.83 36.0682 295.125 34.8523 295.716 33.9205C296.307 32.9773 297.097 32.2386 298.085 31.7045C299.074 31.1705 300.165 30.7727 301.358 30.5114C302.563 30.2386 303.773 30.0227 304.989 29.8636C306.58 29.6591 307.869 29.5057 308.858 29.4034C309.858 29.2898 310.585 29.1023 311.04 28.8409C311.506 28.5795 311.739 28.125 311.739 27.4773V27.3409C311.739 25.6591 311.278 24.3523 310.358 23.4205C309.449 22.4886 308.068 22.0227 306.216 22.0227C304.295 22.0227 302.79 22.4432 301.699 23.2841C300.608 24.125 299.841 25.0227 299.398 25.9773L295.58 24.6136C296.261 23.0227 297.17 21.7841 298.307 20.8977C299.455 20 300.705 19.375 302.057 19.0227C303.42 18.6591 304.761 18.4773 306.08 18.4773C306.92 18.4773 307.886 18.5795 308.977 18.7841C310.08 18.9773 311.142 19.3807 312.165 19.9943C313.199 20.608 314.057 21.5341 314.739 22.7727C315.42 24.0114 315.761 25.6705 315.761 27.75V45H311.739V41.4545H311.534C311.261 42.0227 310.807 42.6307 310.17 43.2784C309.534 43.9261 308.688 44.4773 307.631 44.9318C306.574 45.3864 305.284 45.6136 303.761 45.6136ZM304.375 42C305.966 42 307.307 41.6875 308.398 41.0625C309.5 40.4375 310.33 39.6307 310.886 38.642C311.455 37.6534 311.739 36.6136 311.739 35.5227V31.8409C311.568 32.0455 311.193 32.233 310.614 32.4034C310.045 32.5625 309.386 32.7045 308.636 32.8295C307.898 32.9432 307.176 33.0455 306.472 33.1364C305.778 33.2159 305.216 33.2841 304.784 33.3409C303.739 33.4773 302.761 33.6989 301.852 34.0057C300.955 34.3011 300.227 34.75 299.67 35.3523C299.125 35.9432 298.852 36.75 298.852 37.7727C298.852 39.1705 299.369 40.2273 300.403 40.9432C301.449 41.6477 302.773 42 304.375 42Z" fill="#009933"/>
</g>
<defs>
<clipPath id="clip0_1_22">
<rect width="339" height="56" fill="white"/>
</clipPath>
</defs>
</svg>
